<svg xmlns="http://www.w3.org/2000/svg" viewBox="0 0 40 40" fill="none">
  <defs>
    <linearGradient id="g" x1="0" y1="0" x2="40" y2="40" gradientUnits="userSpaceOnUse">
      <stop stop-color="#22d3ee"/><stop offset="1" stop-color="#a78bfa"/>
    </linearGradient>
  </defs>
  <rect width="40" height="40" rx="11" fill="url(#g)"/>
  <g stroke="#06121f" stroke-linecap="round" fill="none">
    <path d="M16.5 11.2H23.5M13 16.5H27M13 27H27M16.5 31.8H23.5" stroke-width="1.7" opacity=".5"/>
    <path d="M20 6C29.5 8.3 29.5 10.7 20 13C10.5 15.3 10.5 17.7 20 20C29.5 22.3 29.5 24.7 20 27C10.5 29.3 10.5 31.7 20 34" stroke-width="2.3"/>
    <path d="M20 6C10.5 8.3 10.5 10.7 20 13C29.5 15.3 29.5 17.7 20 20C10.5 22.3 10.5 24.7 20 27C29.5 29.3 29.5 31.7 20 34" stroke-width="2.3"/>
  </g>
</svg>
